# xmcd
#
# Track frame offsets:
#	150
#	12931
#	26394
#	38368
#	53720
#	89198
#	94291
#	110340
#	126785
#	140044
#	151305
#	167000
#	192902
#	205229
#	220641
#	238416
#	253200
#	265290
#
# Disc length: 3682 seconds
#
# Revision: 1
# Processed by: cddbd v1.4PL0 Copyright (c) Steve Scherf et al.
# Submitted via: audiograbber 1.82.01
#
DISCID=000e6012
DTITLE=The Blues Brothers - The Blues Brothers Complete
DYEAR=1900
DGENRE=Blues
TTITLE0=Shake a Tail Feather
TTITLE1=The Old Landmark
TTITLE2=Theme from Rawhide
TTITLE3=Minnie the Moocher
TTITLE4=Sweet Home Chicago
TTITLE5=Jailhouse Rock
TTITLE6=Who's Making Love
TTITLE7=Do You Love Me
TTITLE8=Guilty
TTITLE9=Perry Mason Theme
TTITLE10=Riot in Cell Block Number Nine
TTITLE11=Green Onions
TTITLE12=Ain't Got You
TTITLE13=From the Bottom
TTITLE14=I Can't Turn You Loose
TTITLE15=Going Back to Miami
TTITLE16=Expressway to Your Heart
TTITLE17=Excusez Moi Mon Cherie
EXTD=
EXTT0=
EXTT1=
EXTT2=
EXTT3=
EXTT4=
EXTT5=
EXTT6=
EXTT7=
EXTT8=
EXTT9=
EXTT10=
EXTT11=
EXTT12=
EXTT13=
EXTT14=
EXTT15=
EXTT16=
EXTT17=
PLAYORDER=
